<?xml version="1.0" encoding="utf-8"?>
<!-- Generator: Adobe Illustrator 19.0.1, SVG Export Plug-In . SVG Version: 6.00 Build 0)  -->
<svg version="1.1" id="Layer_1" xmlns="http://www.w3.org/2000/svg" xmlns:xlink="http://www.w3.org/1999/xlink" x="0px" y="0px"
	 viewBox="0 0 184.7 245.5" style="enable-background:new 0 0 184.7 245.5;" xml:space="preserve">
<style type="text/css">
	.st0{fill:#231F20;}
	.st1{clip-path:url(#SVGID_2_);fill:#231F20;}
	.st2{clip-path:url(#SVGID_2_);fill:#0AA5DE;}
	.st3{clip-path:url(#SVGID_2_);fill:#93C83E;}
	.st4{fill:#0078A1;}
	.st5{fill:#73A441;}
</style>
<g>
	<g>
		<path class="st0" d="M58.3,224.8c0.9,0,2.4,0.2,4.4,0.5l1,0.1l-0.1,2.4c-2.1-0.2-3.7-0.4-4.7-0.4c-2.2,0-3.8,0.5-4.6,1.6
			c-0.8,1.1-1.2,3.1-1.2,6c0,2.9,0.4,4.9,1.1,6.1c0.8,1.1,2.3,1.7,4.7,1.7l4.7-0.4l0.1,2.5c-2.5,0.4-4.3,0.6-5.5,0.6
			c-3.1,0-5.2-0.8-6.4-2.4c-1.2-1.6-1.8-4.3-1.8-8c0-3.8,0.6-6.4,1.9-7.9C53.2,225.6,55.3,224.8,58.3,224.8z"/>
		<path class="st0" d="M68.4,245.1v-28.5h3v28.5H68.4z"/>
		<path class="st0" d="M76.5,235.1c0-3.6,0.6-6.2,1.9-7.9c1.3-1.6,3.5-2.4,6.6-2.4c3.1,0,5.3,0.8,6.6,2.4c1.3,1.6,1.9,4.2,1.9,7.9
			c0,3.6-0.6,6.3-1.8,7.9c-1.2,1.6-3.4,2.5-6.7,2.5c-3.2,0-5.5-0.8-6.7-2.5C77.1,241.4,76.5,238.7,76.5,235.1z M79.5,235
			c0,2.9,0.4,4.9,1.1,6.1c0.7,1.2,2.2,1.7,4.4,1.7c2.2,0,3.7-0.6,4.4-1.7c0.7-1.2,1-3.2,1-6.1c0-2.9-0.4-4.9-1.2-6
			c-0.8-1.1-2.2-1.6-4.3-1.6c-2.1,0-3.5,0.5-4.3,1.6C79.9,230.1,79.5,232.1,79.5,235z"/>
		<path class="st0" d="M110.7,225.2h3v19.8h-3v-1.4c-2,1.2-3.9,1.8-5.9,1.8c-2.7,0-4.5-0.7-5.4-2.1c-0.9-1.4-1.3-4-1.3-7.8v-10.4h3
			v10.3c0,2.9,0.3,4.8,0.8,5.8c0.5,1,1.6,1.5,3.4,1.5c0.9,0,1.8-0.1,2.7-0.4c0.9-0.3,1.6-0.5,2.1-0.7l0.7-0.4V225.2z"/>
		<path class="st0" d="M134.6,216.6v28.5h-2.9v-1.3c-2,1.2-4,1.7-6,1.7c-1.1,0-2-0.1-2.8-0.4c-0.8-0.3-1.5-0.7-2.2-1.4
			c-1.4-1.4-2.1-4.1-2.1-7.9c0-3.9,0.6-6.6,1.9-8.3c1.3-1.7,3.4-2.6,6.4-2.6c1.5,0,3.2,0.2,4.9,0.5v-8.8H134.6z M124.3,242.5
			c0.5,0.2,1.1,0.3,1.8,0.3c0.8,0,1.6-0.1,2.5-0.4c0.9-0.3,1.7-0.5,2.2-0.7l0.8-0.4v-13.5c-1.7-0.3-3.3-0.5-4.7-0.5
			c-2,0-3.4,0.6-4.2,1.9c-0.8,1.3-1.2,3.3-1.2,6c0,3.1,0.5,5.1,1.4,6.2C123.4,242,123.8,242.3,124.3,242.5z"/>
	</g>
</g>
<g>
	<g>
		<defs>
			<path id="SVGID_1_" d="M92.3,184.7C41.4,184.7,0,143.3,0,92.3S41.4,0,92.3,0s92.3,41.4,92.3,92.3S143.3,184.7,92.3,184.7z
				 M92.3,67.7c-13.5,0-24.5,11.1-24.5,24.6s11,24.5,24.5,24.5s24.5-11,24.5-24.5S105.9,67.7,92.3,67.7z"/>
		</defs>
		<clipPath id="SVGID_2_">
			<use xlink:href="#SVGID_1_"  style="overflow:visible;"/>
		</clipPath>
		<circle class="st1" cx="3.5" cy="92.1" r="92.3"/>
		<circle class="st2" cx="92.3" cy="-8.8" r="76.5"/>
		<circle class="st3" cx="92.3" cy="193.4" r="76.5"/>
	</g>
	<path class="st4" d="M92.4,67.8C85.8,43.5,69.5,23.3,48,11.4C39.5,16,32,21.9,25.4,28.8C38.5,52.2,63.6,67.9,92.4,67.8z"/>
	<path class="st5" d="M92.4,116.9c0,0-0.1,0-0.1,0c-28.7,0-53.7,15.8-66.8,39.1c6.5,6.8,13.9,12.6,22.2,17.1
		C69.4,161.4,85.7,141.1,92.4,116.9z"/>
</g>
</svg>
