<?xml version="1.0" encoding="utf-8"?>
<!-- Generator: Adobe Illustrator 19.0.0, SVG Export Plug-In . SVG Version: 6.00 Build 0)  -->
<svg version="1.1" id="Layer_1" xmlns="http://www.w3.org/2000/svg" xmlns:xlink="http://www.w3.org/1999/xlink" x="0px" y="0px"
	 viewBox="0 0 367 218" style="enable-background:new 0 0 367 218;" xml:space="preserve">
<style type="text/css">
	.st0{fill:none;stroke:#D2D3D4;stroke-width:12;stroke-miterlimit:10;}
	.st1{fill:none;stroke:#D5D7D8;stroke-width:10.1667;stroke-miterlimit:10;}
	.st2{fill:none;stroke:#D9DADB;stroke-width:8.3333;stroke-miterlimit:10;}
	.st3{fill:none;stroke:#DDDEDF;stroke-width:6.5;stroke-miterlimit:10;}
	.st4{fill:none;stroke:#E1E2E2;stroke-width:4.6667;stroke-miterlimit:10;}
	.st5{fill:none;stroke:#E6E6E6;stroke-width:2.8333;stroke-miterlimit:10;}
	.st6{fill:none;stroke:#EAEAEA;stroke-miterlimit:10;}
	.st7{fill:#40BEB0;}
	.st8{fill:#FFFFFF;}
	.st9{fill:none;stroke:#D2D3D4;stroke-width:2;stroke-miterlimit:10;}
	.st10{opacity:0.49;fill:#95C53F;}
	.st11{opacity:0.5;fill:#37A595;}
	.st12{opacity:0.5;fill:#F2BD1A;}
	.st13{opacity:0.5;fill:#E8478B;}
	.st14{opacity:0.64;fill:#E8478B;}
</style>
<g id="XMLID_435_">
	<g id="XMLID_243_">
		<circle id="XMLID_2_" class="st0" cx="181.7" cy="100.5" r="30"/>
		<circle id="XMLID_7_" class="st1" cx="181.7" cy="100.5" r="40.1"/>
		<circle id="XMLID_6_" class="st2" cx="181.7" cy="100.5" r="50.2"/>
		<circle id="XMLID_5_" class="st3" cx="181.7" cy="100.5" r="60.3"/>
		<circle id="XMLID_4_" class="st4" cx="181.7" cy="100.5" r="70.4"/>
		<circle id="XMLID_3_" class="st5" cx="181.7" cy="100.5" r="80.5"/>
		<circle id="XMLID_1_" class="st6" cx="181.7" cy="100.5" r="90.6"/>
	</g>
	<g id="XMLID_56_">
		<path id="XMLID_210_" class="st7" d="M208.1,83.1c-5.7-8.6-15.4-14.3-26.5-14.3c-11.1,0-20.8,5.7-26.5,14.3
			c-3.3,5-5.2,11-5.2,17.4c0,7.6,2.7,14.6,7.2,20.1c5.8,7.1,14.6,11.6,24.5,11.6c9.9,0,18.7-4.5,24.5-11.6
			c4.5-5.5,7.2-12.5,7.2-20.1C213.3,94.1,211.4,88.1,208.1,83.1z"/>
		<polygon id="XMLID_209_" class="st8" points="178.6,107.7 184.8,107.7 186.1,83.1 177.3,83.1 		"/>
		<path id="XMLID_208_" class="st8" d="M181.7,112.1c-1.4,0-2.5,0.4-3.3,1.1c-0.8,0.7-1.1,1.8-1.1,3.2c0,1.4,0.4,2.4,1.2,3.2
			c0.8,0.7,1.9,1.1,3.3,1.1c1.4,0,2.5-0.4,3.2-1.1c0.8-0.8,1.2-1.8,1.2-3.1c0-1.4-0.4-2.4-1.1-3.2
			C184.1,112.4,183.1,112.1,181.7,112.1z"/>
		<path id="XMLID_207_" class="st7" d="M218.1,83.1h-5.4c2.9,5.1,4.6,11.1,4.6,17.4c0,7.4-2.3,14.4-6.2,20.1h5.7
			c3.4-5.9,5.3-12.8,5.3-20.1C222,94.3,220.6,88.4,218.1,83.1z"/>
		<path id="XMLID_80_" class="st7" d="M150.6,83.1h-5.4c-2.5,5.3-3.9,11.2-3.9,17.4c0,7.3,1.9,14.2,5.3,20.1h5.7
			c-3.9-5.7-6.2-12.6-6.2-20.1C146,94.2,147.7,88.3,150.6,83.1z"/>
	</g>
</g>
<g id="XMLID_434_">
	<line id="XMLID_436_" class="st9" x1="88.3" y1="217" x2="265.5" y2="217"/>
</g>
<g id="XMLID_443_">
	<rect id="XMLID_446_" x="93.5" y="213.6" class="st10" width="12" height="3.3"/>
</g>
<g id="XMLID_447_">
	<rect id="XMLID_449_" x="110.3" y="208.7" class="st11" width="12" height="4.9"/>
	<polygon id="XMLID_450_" class="st10" points="122.3,216.9 110.3,216.9 110.3,213.7 122.3,213.7 	"/>
</g>
<g id="XMLID_451_">
	<rect id="XMLID_454_" x="127.1" y="212.3" class="st10" width="12" height="4.7"/>
	<rect id="XMLID_453_" x="127.1" y="207.6" class="st11" width="12" height="4.7"/>
	<rect id="XMLID_452_" x="127.1" y="202.9" class="st12" width="12" height="4.7"/>
</g>
<g id="XMLID_455_">
	<rect id="XMLID_458_" x="143.8" y="211.4" class="st10" width="12" height="5.5"/>
	<rect id="XMLID_457_" x="143.8" y="205.9" class="st11" width="12" height="5.5"/>
	<rect id="XMLID_456_" x="143.8" y="200.4" class="st12" width="12" height="5.5"/>
</g>
<g id="XMLID_459_">
	<rect id="XMLID_462_" x="160.6" y="210.8" class="st10" width="12" height="6.2"/>
	<rect id="XMLID_461_" x="160.6" y="204.6" class="st11" width="12" height="6.2"/>
	<rect id="XMLID_460_" x="160.6" y="198.4" class="st13" width="12" height="6.2"/>
</g>
<g id="XMLID_463_">
	<rect id="XMLID_466_" x="177.3" y="210.8" class="st10" width="12" height="6.2"/>
	<rect id="XMLID_465_" x="177.3" y="204.6" class="st11" width="12" height="6.2"/>
	<rect id="XMLID_464_" x="177.3" y="196.1" class="st14" width="12" height="8.5"/>
</g>
<g id="XMLID_467_">
	<rect id="XMLID_470_" x="194.1" y="210.8" class="st10" width="12" height="6.2"/>
	<rect id="XMLID_469_" x="194.1" y="204.6" class="st11" width="12" height="6.2"/>
	<rect id="XMLID_468_" x="194.1" y="198.4" class="st13" width="12" height="6.2"/>
</g>
<g id="XMLID_471_">
	<rect id="XMLID_474_" x="210.8" y="211.8" class="st10" width="12" height="5.1"/>
	<rect id="XMLID_473_" x="210.8" y="206.6" class="st11" width="12" height="5.1"/>
	<rect id="XMLID_472_" x="210.8" y="201.5" class="st12" width="12" height="5.1"/>
</g>
<g id="XMLID_475_">
	<rect id="XMLID_478_" x="227.6" y="212.3" class="st10" width="12" height="4.7"/>
	<rect id="XMLID_477_" x="227.6" y="207.6" class="st11" width="12" height="4.7"/>
	<rect id="XMLID_476_" x="227.6" y="202.9" class="st12" width="12" height="4.7"/>
</g>
<g id="XMLID_479_">
	<rect id="XMLID_482_" x="244.3" y="212.8" class="st10" width="12" height="4.1"/>
</g>
</svg>
