<?xml version="1.0" encoding="utf-8"?>
<!-- Generator: Adobe Illustrator 19.0.1, SVG Export Plug-In . SVG Version: 6.00 Build 0)  -->
<svg version="1.1" id="Layer_1" xmlns="http://www.w3.org/2000/svg" xmlns:xlink="http://www.w3.org/1999/xlink" x="0px" y="0px"
	 viewBox="0 0 134 134" style="enable-background:new 0 0 134 134;" xml:space="preserve">
<style type="text/css">
	.st0{fill:#15A8E0;}
</style>
<path class="st0" d="M111.7,44c-5.6,0-10.7,2-14.6,5.4L71.1,33.1c0.5-2,0.8-4.2,0.8-6.3C71.8,12,59.8,0,44.9,0C30,0,18,12,18,26.8
	c0,10.8,6.4,20.1,15.6,24.3l-13.9,46c-0.4,0-0.8,0-1.2,0C8.3,97.1,0,105.3,0,115.5S8.3,134,18.6,134c10.3,0,18.6-8.3,18.6-18.5
	c0-1.5-0.2-2.9-0.5-4.2l58.2-30.7c4.1,4.8,10.2,7.8,16.9,7.8c12.3,0,22.3-9.9,22.3-22.2C134,54,124,44,111.7,44 M32.8,103.7
	c-1.5-1.8-3.4-3.4-5.5-4.5l13.9-45.9c1.2,0.2,2.5,0.3,3.7,0.3c7.9,0,15.1-3.4,20-8.9l25.3,15.8c-0.5,1.8-0.7,3.7-0.7,5.7
	c0,2.5,0.4,4.8,1.2,7L32.8,103.7z"/>
</svg>
